<mxfile host="65bd71144e">
    <diagram id="V1yUnh2xMdBn6m9zF0hf" name="Page-1">
        <mxGraphModel dx="904" dy="1148" grid="1" gridSize="10" guides="1" tooltips="1" connect="1" arrows="1" fold="1" page="1" pageScale="1" pageWidth="850" pageHeight="1100" math="0" shadow="0">
            <root>
                <mxCell id="0"/>
                <mxCell id="1" parent="0"/>
                <mxCell id="67" value="" style="rounded=0;whiteSpace=wrap;html=1;fillColor=#1d2021;strokeColor=none;" vertex="1" parent="1">
                    <mxGeometry x="40" y="230" width="810" height="440" as="geometry"/>
                </mxCell>
                <mxCell id="25" value="mTLS gRPC" style="edgeStyle=none;html=1;exitX=1;exitY=0.5;exitDx=0;exitDy=0;entryX=0;entryY=0.5;entryDx=0;entryDy=0;fontSize=12;endArrow=none;endFill=0;" parent="1" source="49" target="23" edge="1">
                    <mxGeometry relative="1" as="geometry">
                        <mxPoint x="452" y="311" as="sourcePoint"/>
                    </mxGeometry>
                </mxCell>
                <mxCell id="22" value="Mongo" style="sketch=0;html=1;verticalAlign=middle;labelPosition=center;verticalLabelPosition=bottom;align=center;spacingTop=-6;fontSize=12;fontStyle=1;fontColor=#999999;shape=image;aspect=fixed;imageAspect=0;image=data:image/svg+xml,PHN2ZyB4bWxucz0iaHR0cDovL3d3dy53My5vcmcvMjAwMC9zdmciIHhtbG5zOnY9Imh0dHBzOi8vdmVjdGEuaW8vbmFubyIgd2lkdGg9IjE0LjY1OTk5OTg0NzQxMjExIiBoZWlnaHQ9IjIwIiB2aWV3Qm94PSIwIDAgMTQuNjU5OTk5ODQ3NDEyMTEgMjAiPiYjeGE7CTxzdHlsZSB0eXBlPSJ0ZXh0L2NzcyI+JiN4YTsJLnN0MHtmaWxsOiM0Mjg1ZjQ7fSYjeGE7CS5zdDF7ZmlsbDojNjY5ZGY2O30mI3hhOwkuc3Qye2ZpbGw6I2FlY2JmYTt9JiN4YTsJPC9zdHlsZT4mI3hhOwk8c3R5bGU+JiN4YTsJCS5Ee2ZpbGwtcnVsZTpldmVub2RkfSYjeGE7CTwvc3R5bGU+JiN4YTsJPHBhdGggZD0iTTcuMzMgMTUuMzV2LTMuMDFMMCA4LjQ0djMuMDF6bTAgNC42NXYtMy4wMUwwIDEzLjA5djMuMDF6IiBjbGFzcz0ic3QyIEQiLz4mI3hhOwk8cGF0aCBkPSJNMTQuNjYgOC40NGwtNy4zMyAzLjl2My4wMWw3LjMzLTMuOXptMCA0LjY1bC03LjMzIDMuOVYyMGw3LjMzLTMuOXoiIGNsYXNzPSJzdDEgRCIvPiYjeGE7CTxwYXRoIGQ9Ik03LjMzIDB2My4wMWw3LjMzIDMuOVYzLjl6IiBjbGFzcz0ic3QwIEQiLz4mI3hhOwk8cGF0aCBkPSJNMCA2LjkxbDcuMzMtMy45VjBMMCAzLjl6IiBjbGFzcz0iRCBzdDEiLz4mI3hhOwk8cGF0aCBkPSJNNy4zMyAxMC43OVY3Ljc3TDAgMy44N3YzLjAyeiIgY2xhc3M9IkQgc3QyIi8+JiN4YTsJPHBhdGggZD0iTTE0LjY2IDMuODdsLTcuMzMgMy45djMuMDJsNy4zMy0zLjl6IiBjbGFzcz0iRCBzdDEiLz4mI3hhOzwvc3ZnPg==;" parent="1" vertex="1">
                    <mxGeometry x="770" y="380" width="32" height="42" as="geometry"/>
                </mxCell>
                <mxCell id="24" style="edgeStyle=none;html=1;exitX=1;exitY=0.5;exitDx=0;exitDy=0;entryX=0;entryY=0.5;entryDx=0;entryDy=0;fontSize=12;" parent="1" source="23" target="22" edge="1">
                    <mxGeometry relative="1" as="geometry"/>
                </mxCell>
                <mxCell id="23" value="Database service" style="sketch=0;html=1;verticalAlign=middle;labelPosition=center;verticalLabelPosition=bottom;align=center;spacingTop=-6;fontSize=12;fontStyle=1;fontColor=#999999;shape=image;aspect=fixed;imageAspect=0;image=data:image/svg+xml,PHN2ZyB4bWxucz0iaHR0cDovL3d3dy53My5vcmcvMjAwMC9zdmciIHhtbG5zOnY9Imh0dHBzOi8vdmVjdGEuaW8vbmFubyIgd2lkdGg9IjIwIiBoZWlnaHQ9IjIwIiB2aWV3Qm94PSIwIDAgMjAgMjAiPiYjeGE7CTxzdHlsZSB0eXBlPSJ0ZXh0L2NzcyI+JiN4YTsJLnN0MHtmaWxsOiM0Mjg1ZjQ7fSYjeGE7CS5zdDF7ZmlsbDojNjY5ZGY2O30mI3hhOwkuc3Qye2ZpbGw6I2FlY2JmYTt9JiN4YTsJLnN0M3tmaWxsOiNmZmY7fSYjeGE7CTwvc3R5bGU+JiN4YTsJPHBhdGggY2xhc3M9InN0MCIgZD0iTTkgNmgydjEwSDl6Ii8+JiN4YTsJPHBhdGggY2xhc3M9InN0MSIgZD0iTTIwIDE3SDB2MmgyMHoiLz4mI3hhOwk8cGF0aCBjbGFzcz0ic3QyIiBkPSJNMTIgMTZIOHY0aDR6TTAgMGgyMHY2SDB6Ii8+JiN4YTsJPHBhdGggY2xhc3M9InN0MSIgZD0iTTEwIDBoMTB2NkgxMHoiLz4mI3hhOwk8cGF0aCBjbGFzcz0ic3QzIiBkPSJNMiAyaDJ2MkgyeiIvPiYjeGE7CTxwYXRoIGNsYXNzPSJzdDIiIGQ9Ik0wIDhoMjB2NkgweiIvPiYjeGE7CTxwYXRoIGNsYXNzPSJzdDEiIGQ9Ik0xMCA4aDEwdjZIMTB6Ii8+JiN4YTsJPHBhdGggY2xhc3M9InN0MyIgZD0iTTIgMTBoMnYySDJ6Ii8+JiN4YTs8L3N2Zz4=;horizontal=1;" parent="1" vertex="1">
                    <mxGeometry x="650" y="380" width="42" height="42" as="geometry"/>
                </mxCell>
                <mxCell id="27" value="mTLS gRPC" style="edgeStyle=none;html=1;exitX=1;exitY=0.5;exitDx=0;exitDy=0;entryX=0;entryY=0.5;entryDx=0;entryDy=0;fontSize=12;endArrow=none;endFill=0;" parent="1" source="26" target="23" edge="1">
                    <mxGeometry relative="1" as="geometry"/>
                </mxCell>
                <mxCell id="26" value="RPC Login User" style="sketch=0;html=1;verticalAlign=middle;labelPosition=center;verticalLabelPosition=bottom;align=center;spacingTop=-6;fontSize=12;fontStyle=1;fontColor=#999999;shape=image;aspect=fixed;imageAspect=0;image=data:image/svg+xml,PHN2ZyB4bWxucz0iaHR0cDovL3d3dy53My5vcmcvMjAwMC9zdmciIHhtbG5zOnY9Imh0dHBzOi8vdmVjdGEuaW8vbmFubyIgd2lkdGg9IjIwIiBoZWlnaHQ9IjIwIiB2aWV3Qm94PSIwIDAgMjAgMjAiPiYjeGE7CTxzdHlsZSB0eXBlPSJ0ZXh0L2NzcyI+JiN4YTsJLnN0MHtmaWxsOiM0Mjg1ZjQ7fSYjeGE7CS5zdDF7ZmlsbDojNjY5ZGY2O30mI3hhOwkuc3Qye2ZpbGw6I2FlY2JmYTt9JiN4YTsJLnN0M3tmaWxsOiNmZmY7fSYjeGE7CTwvc3R5bGU+JiN4YTsJPHBhdGggY2xhc3M9InN0MCIgZD0iTTkgNmgydjEwSDl6Ii8+JiN4YTsJPHBhdGggY2xhc3M9InN0MSIgZD0iTTIwIDE3SDB2MmgyMHoiLz4mI3hhOwk8cGF0aCBjbGFzcz0ic3QyIiBkPSJNMTIgMTZIOHY0aDR6TTAgMGgyMHY2SDB6Ii8+JiN4YTsJPHBhdGggY2xhc3M9InN0MSIgZD0iTTEwIDBoMTB2NkgxMHoiLz4mI3hhOwk8cGF0aCBjbGFzcz0ic3QzIiBkPSJNMiAyaDJ2MkgyeiIvPiYjeGE7CTxwYXRoIGNsYXNzPSJzdDIiIGQ9Ik0wIDhoMjB2NkgweiIvPiYjeGE7CTxwYXRoIGNsYXNzPSJzdDEiIGQ9Ik0xMCA4aDEwdjZIMTB6Ii8+JiN4YTsJPHBhdGggY2xhc3M9InN0MyIgZD0iTTIgMTBoMnYySDJ6Ii8+JiN4YTs8L3N2Zz4=;horizontal=1;" parent="1" vertex="1">
                    <mxGeometry x="402" y="470" width="42" height="42" as="geometry"/>
                </mxCell>
                <mxCell id="45" value="gRPC" style="edgeStyle=none;html=1;exitX=1;exitY=0.5;exitDx=0;exitDy=0;fontSize=12;" parent="1" source="29" edge="1">
                    <mxGeometry relative="1" as="geometry">
                        <mxPoint x="255.30999999999995" y="482" as="sourcePoint"/>
                        <mxPoint x="306" y="482" as="targetPoint"/>
                    </mxGeometry>
                </mxCell>
                <mxCell id="29" value="RPC gateway" style="sketch=0;html=1;verticalAlign=bottom;labelPosition=center;verticalLabelPosition=top;align=center;spacingTop=-6;fontSize=12;fontStyle=1;fontColor=#999999;shape=image;aspect=fixed;imageAspect=0;image=data:image/svg+xml,PHN2ZyB4bWxucz0iaHR0cDovL3d3dy53My5vcmcvMjAwMC9zdmciIGlkPSJzdmczMjM0NyIgdmVyc2lvbj0iMS4xIiB2aWV3Qm94PSIwIDAgMjY1LjgzODA0IDI0NS4zMDU1NCIgaGVpZ2h0PSIyNDUuMzA1NTRtbSIgd2lkdGg9IjI2NS44MzgwNG1tIj4mI3hhOyAgJiN4YTsgIDxkZWZzIGlkPSJkZWZzMzIzNDQiLz4mI3hhOyAgPGcgdHJhbnNmb3JtPSJ0cmFuc2xhdGUoMjYuMDAxOTQ1LC0yNC45MTAzOTEpIiBpZD0ibGF5ZXIxIj4mI3hhOyAgICA8cGF0aCBkPSJtIDQyLjE3OTY4NywzMy45Nzg1MTYgYyAtMC42NDE1MDMsMC4wMTg2IC0xLjI4NjQ4NywwLjAzODggLTEuOTM1MzIzLDAuMDU5OTIgMi4wMTg1ODUsOC44ODg3MiAyLjQ1ODk0MSwxNi40NTc5NjYgLTAuMDk3MzMsMjYuMDYyNzY0IDEyLjI5MTAzNywtMC4zNDA5NzUgMTkuMjU0OTQyLC0wLjQ0NTY3MyAyNi44NzQ0NDksMi45Mzc4NjYgbCAwLjAxOTUzLDAuMDA3OCAwLjAxOTUzLDAuMDA5OCBjIDYuMzEwNzgzLDIuNzc3OTA4IDE0LjMyNzI4NSwxMi42MDI0NyAyMS44NjcxODcsMjYuMTcxODc1IDcuNTM5OTAzLDEzLjU2OTM5OSAxNC43MTAwOCwyOS44NzM2NzkgMjQuMDc4MTMsNDMuNjQwNjE5IGwgMC4yOTEwMiwwLjQyNzczIDAuMzIyMjYsMC40MDIzNSBjIDkuODM1NCwxMi4yMzgxNSAyMy40ODA0MiwyMi43MDczNiA0OS4wODIzOCwyNi45Njg4MSAtMi4wODM5NiwtOS41MDI2NSAtMi4yMTQ2NywtMTYuMjA1NzYgLTAuMDQwOSwtMjYuMjk3OTIgLTE3LjE1OTg5LC0zLjAxOTUgLTIwLjk5MjI3LC03LjMxNTc2IC0yOC40MDg2NCwtMTYuNTMyMjQgQyAxMjcuMDIwNSwxMDcuMDkyODMgMTE5Ljg5NjEzLDkxLjQyODc1MiAxMTEuNjU2MjUsNzYuNTk5NjA5IDEwMy4zMjUyNyw2MS42MDY1MTYgOTMuOTU5MzUxLDQ2LjQ5OTg0MSA3Ny41NTI3MzQsMzkuMjY5NTMxIDY1LjMzNTEzMSwzMy44NDk2MzIgNTQuMzg3OTc1LDMzLjYyNDUwMyA0Mi4xNzk2ODcsMzMuOTc4NTE2IFogTSAyMzkuODM2MSwxNDcuMjkzNSBhIDI3LjU3ODE5NywyNy41NzgxOTcgMCAwIDEgLTI3LjU3ODIsMjcuNTc4MiAyNy41NzgxOTcsMjcuNTc4MTk3IDAgMCAxIC0yNy41NzgxOSwtMjcuNTc4MiAyNy41NzgxOTcsMjcuNTc4MTk3IDAgMCAxIDI3LjU3ODE5LC0yNy41NzgxOSAyNy41NzgxOTcsMjcuNTc4MTk3IDAgMCAxIDI3LjU3ODIsMjcuNTc4MTkgeiBNIDE4LjA0NjY0MSwyNDguMzU3ODggQSAyMS44NTgwNjEsMjEuODU4MDYxIDAgMCAxIC0zLjgxMTQxOTUsMjcwLjIxNTk0IDIxLjg1ODA2MSwyMS44NTgwNjEgMCAwIDEgLTI1LjY2OTQ4LDI0OC4zNTc4OCAyMS44NTgwNjEsMjEuODU4MDYxIDAgMCAxIC0zLjgxMTQxOTUsMjI2LjQ5OTgyIDIxLjg1ODA2MSwyMS44NTgwNjEgMCAwIDEgMTguMDQ2NjQxLDI0OC4zNTc4OCBaIE0gMTcuNzc4MjYzLDQ2Ljc2ODQ1MiBBIDIxLjg1ODA2MSwyMS44NTgwNjEgMCAwIDEgLTQuMDc5Nzk3Nyw2OC42MjY1MTMgMjEuODU4MDYxLDIxLjg1ODA2MSAwIDAgMSAtMjUuOTM3ODU5LDQ2Ljc2ODQ1MiAyMS44NTgwNjEsMjEuODU4MDYxIDAgMCAxIC00LjA3OTc5NzcsMjQuOTEwMzkxIDIxLjg1ODA2MSwyMS44NTgwNjEgMCAwIDEgMTcuNzc4MjYzLDQ2Ljc2ODQ1MiBaIE0gMTcuNzE0MTc2LDE0Ny42NTM3OSBBIDIxLjg1ODA2MSwyMS44NTgwNjEgMCAwIDEgLTQuMTQzODg0NywxNjkuNTExODUgMjEuODU4MDYxLDIxLjg1ODA2MSAwIDAgMSAtMjYuMDAxOTQ1LDE0Ny42NTM3OSAyMS44NTgwNjEsMjEuODU4MDYxIDAgMCAxIC00LjE0Mzg4NDcsMTI1Ljc5NTczIDIxLjg1ODA2MSwyMS44NTgwNjEgMCAwIDEgMTcuNzE0MTc2LDE0Ny42NTM3OSBaIiBzdHlsZT0iY29sb3I6IzAwMDAwMDtvcGFjaXR5OjE7ZmlsbDojMzM1YmJiO2ZpbGwtb3BhY2l0eToxOy1pbmtzY2FwZS1zdHJva2U6bm9uZSIgaWQ9InBhdGgzMjg5NyIvPiYjeGE7ICAgIDxwYXRoIGQ9Im0gMTEyLjk3NzA4LDE2NS4zNDI3IGMgLTUuMDc0Niw3LjY0NjM0IC05LjMyODY3LDE0LjY3MzE5IC0xMi41MTQxOSwyMC45MTkwMiBsIC0wLjEyNSwwLjI0NjA5IC0wLjExNTIzLDAuMjUxOTYgYyAtOS4yMTU2NzYsMjAuMTM4MDEgLTE5LjUyMjQ5MSwzNi41ODk1NiAtMjkuODI4MTI5LDQzLjMwMDc4IC0xMy4xNjMxNTYsNi44NjM1MyAtMTkuODk5MzY4LDUuNTEzMDEgLTMwLjM2NDgxNSw0Ljk2MTA2IDMuMTk2MDQ0LDExLjgwNjMzIDIuNDQ0NTA2LDE5LjExMDMxIDAuMTQyNDQ4LDI2LjA1MzIxIDkuNTc3ODUsMC41MzIzNiAyNC45Mjg4MzksMS4yNzQ0MiA0Mi45NTA4ODMsLTguMzA3MjQgbCAwLjQyNzczNCwtMC4yMjY1NiAwLjQxMDE1NiwtMC4yNTk3NyBDIDEwMi44MjIzLDI0MC4zNjc4IDExMy43ODE1MiwyMTkuNTM4OTEgMTIzLjYyNSwxOTguMDc2MTcgYyAyLjYwNjk3LC01LjExMTQ2IDYuNjc0NTEsLTExLjg1MTUgMTEuNzEsLTE5LjM5NDg0IC05LjA3NDY4LC0zLjA3Nzk1IC0xNi45NDA4MSwtOC42MDk4NiAtMjIuMzU3OTIsLTEzLjMzODYzIHogbSAtNzIuODE4NSwtNC42MTUzOSA0Ni41MTQ0NzMsMC4wMTgxIDguOTkxMTU4LC0xMy4yODE0MiAtOC40MTMyODIsLTEyLjcxODM2IC00Ny4wOTI0MDYsLTAuMDE4MyBjIDIuODEzNDc4LDcuMzYzOTggMi4yMjQ4MjIsMTkuNjM5MTEgNS43ZS01LDI2IHoiIHN0eWxlPSJjb2xvcjojMDAwMDAwO29wYWNpdHk6MTtmaWxsOiM3NjllZjU7ZmlsbC1vcGFjaXR5OjE7LWlua3NjYXBlLXN0cm9rZTpub25lIiBpZD0icGF0aDMyOTAxIi8+JiN4YTsgIDwvZz4mI3hhOzwvc3ZnPg==;" parent="1" vertex="1">
                    <mxGeometry x="198" y="467" width="32.31" height="30" as="geometry"/>
                </mxCell>
                <mxCell id="47" value="RESTful" style="edgeStyle=none;html=1;exitX=0.84;exitY=0.28;exitDx=0;exitDy=0;exitPerimeter=0;entryX=0;entryY=0.5;entryDx=0;entryDy=0;fontSize=12;" parent="1" source="46" target="29" edge="1">
                    <mxGeometry relative="1" as="geometry"/>
                </mxCell>
                <mxCell id="48" value="gRPC" style="edgeStyle=none;html=1;fontSize=12;labelPosition=center;verticalLabelPosition=bottom;align=center;verticalAlign=top;" parent="1" edge="1">
                    <mxGeometry relative="1" as="geometry">
                        <mxPoint x="108" y="503" as="sourcePoint"/>
                        <mxPoint x="306" y="503" as="targetPoint"/>
                    </mxGeometry>
                </mxCell>
                <mxCell id="46" value="Frontend" style="verticalLabelPosition=bottom;html=1;verticalAlign=top;align=center;strokeColor=none;fillColor=#00BEF2;shape=mxgraph.azure.user;fontSize=12;" parent="1" vertex="1">
                    <mxGeometry x="78" y="474" width="30" height="30" as="geometry"/>
                </mxCell>
                <mxCell id="49" value="RPC Create User" style="sketch=0;html=1;verticalAlign=middle;labelPosition=center;verticalLabelPosition=bottom;align=center;spacingTop=-6;fontSize=12;fontStyle=1;fontColor=#999999;shape=image;aspect=fixed;imageAspect=0;image=data:image/svg+xml,PHN2ZyB4bWxucz0iaHR0cDovL3d3dy53My5vcmcvMjAwMC9zdmciIHhtbG5zOnY9Imh0dHBzOi8vdmVjdGEuaW8vbmFubyIgd2lkdGg9IjIwIiBoZWlnaHQ9IjIwIiB2aWV3Qm94PSIwIDAgMjAgMjAiPiYjeGE7CTxzdHlsZSB0eXBlPSJ0ZXh0L2NzcyI+JiN4YTsJLnN0MHtmaWxsOiM0Mjg1ZjQ7fSYjeGE7CS5zdDF7ZmlsbDojNjY5ZGY2O30mI3hhOwkuc3Qye2ZpbGw6I2FlY2JmYTt9JiN4YTsJLnN0M3tmaWxsOiNmZmY7fSYjeGE7CTwvc3R5bGU+JiN4YTsJPHBhdGggY2xhc3M9InN0MCIgZD0iTTkgNmgydjEwSDl6Ii8+JiN4YTsJPHBhdGggY2xhc3M9InN0MSIgZD0iTTIwIDE3SDB2MmgyMHoiLz4mI3hhOwk8cGF0aCBjbGFzcz0ic3QyIiBkPSJNMTIgMTZIOHY0aDR6TTAgMGgyMHY2SDB6Ii8+JiN4YTsJPHBhdGggY2xhc3M9InN0MSIgZD0iTTEwIDBoMTB2NkgxMHoiLz4mI3hhOwk8cGF0aCBjbGFzcz0ic3QzIiBkPSJNMiAyaDJ2MkgyeiIvPiYjeGE7CTxwYXRoIGNsYXNzPSJzdDIiIGQ9Ik0wIDhoMjB2NkgweiIvPiYjeGE7CTxwYXRoIGNsYXNzPSJzdDEiIGQ9Ik0xMCA4aDEwdjZIMTB6Ii8+JiN4YTsJPHBhdGggY2xhc3M9InN0MyIgZD0iTTIgMTBoMnYySDJ6Ii8+JiN4YTs8L3N2Zz4=;horizontal=1;" parent="1" vertex="1">
                    <mxGeometry x="402" y="295" width="42" height="42" as="geometry"/>
                </mxCell>
                <mxCell id="50" value="gRPC" style="edgeStyle=none;html=1;exitX=1;exitY=0.5;exitDx=0;exitDy=0;entryX=0;entryY=0.25;entryDx=0;entryDy=0;fontSize=12;" parent="1" source="51" target="49" edge="1">
                    <mxGeometry relative="1" as="geometry"/>
                </mxCell>
                <mxCell id="51" value="RPC gateway" style="sketch=0;html=1;verticalAlign=bottom;labelPosition=center;verticalLabelPosition=top;align=center;spacingTop=-6;fontSize=12;fontStyle=1;fontColor=#999999;shape=image;aspect=fixed;imageAspect=0;image=data:image/svg+xml,PHN2ZyB4bWxucz0iaHR0cDovL3d3dy53My5vcmcvMjAwMC9zdmciIGlkPSJzdmczMjM0NyIgdmVyc2lvbj0iMS4xIiB2aWV3Qm94PSIwIDAgMjY1LjgzODA0IDI0NS4zMDU1NCIgaGVpZ2h0PSIyNDUuMzA1NTRtbSIgd2lkdGg9IjI2NS44MzgwNG1tIj4mI3hhOyAgJiN4YTsgIDxkZWZzIGlkPSJkZWZzMzIzNDQiLz4mI3hhOyAgPGcgdHJhbnNmb3JtPSJ0cmFuc2xhdGUoMjYuMDAxOTQ1LC0yNC45MTAzOTEpIiBpZD0ibGF5ZXIxIj4mI3hhOyAgICA8cGF0aCBkPSJtIDQyLjE3OTY4NywzMy45Nzg1MTYgYyAtMC42NDE1MDMsMC4wMTg2IC0xLjI4NjQ4NywwLjAzODggLTEuOTM1MzIzLDAuMDU5OTIgMi4wMTg1ODUsOC44ODg3MiAyLjQ1ODk0MSwxNi40NTc5NjYgLTAuMDk3MzMsMjYuMDYyNzY0IDEyLjI5MTAzNywtMC4zNDA5NzUgMTkuMjU0OTQyLC0wLjQ0NTY3MyAyNi44NzQ0NDksMi45Mzc4NjYgbCAwLjAxOTUzLDAuMDA3OCAwLjAxOTUzLDAuMDA5OCBjIDYuMzEwNzgzLDIuNzc3OTA4IDE0LjMyNzI4NSwxMi42MDI0NyAyMS44NjcxODcsMjYuMTcxODc1IDcuNTM5OTAzLDEzLjU2OTM5OSAxNC43MTAwOCwyOS44NzM2NzkgMjQuMDc4MTMsNDMuNjQwNjE5IGwgMC4yOTEwMiwwLjQyNzczIDAuMzIyMjYsMC40MDIzNSBjIDkuODM1NCwxMi4yMzgxNSAyMy40ODA0MiwyMi43MDczNiA0OS4wODIzOCwyNi45Njg4MSAtMi4wODM5NiwtOS41MDI2NSAtMi4yMTQ2NywtMTYuMjA1NzYgLTAuMDQwOSwtMjYuMjk3OTIgLTE3LjE1OTg5LC0zLjAxOTUgLTIwLjk5MjI3LC03LjMxNTc2IC0yOC40MDg2NCwtMTYuNTMyMjQgQyAxMjcuMDIwNSwxMDcuMDkyODMgMTE5Ljg5NjEzLDkxLjQyODc1MiAxMTEuNjU2MjUsNzYuNTk5NjA5IDEwMy4zMjUyNyw2MS42MDY1MTYgOTMuOTU5MzUxLDQ2LjQ5OTg0MSA3Ny41NTI3MzQsMzkuMjY5NTMxIDY1LjMzNTEzMSwzMy44NDk2MzIgNTQuMzg3OTc1LDMzLjYyNDUwMyA0Mi4xNzk2ODcsMzMuOTc4NTE2IFogTSAyMzkuODM2MSwxNDcuMjkzNSBhIDI3LjU3ODE5NywyNy41NzgxOTcgMCAwIDEgLTI3LjU3ODIsMjcuNTc4MiAyNy41NzgxOTcsMjcuNTc4MTk3IDAgMCAxIC0yNy41NzgxOSwtMjcuNTc4MiAyNy41NzgxOTcsMjcuNTc4MTk3IDAgMCAxIDI3LjU3ODE5LC0yNy41NzgxOSAyNy41NzgxOTcsMjcuNTc4MTk3IDAgMCAxIDI3LjU3ODIsMjcuNTc4MTkgeiBNIDE4LjA0NjY0MSwyNDguMzU3ODggQSAyMS44NTgwNjEsMjEuODU4MDYxIDAgMCAxIC0zLjgxMTQxOTUsMjcwLjIxNTk0IDIxLjg1ODA2MSwyMS44NTgwNjEgMCAwIDEgLTI1LjY2OTQ4LDI0OC4zNTc4OCAyMS44NTgwNjEsMjEuODU4MDYxIDAgMCAxIC0zLjgxMTQxOTUsMjI2LjQ5OTgyIDIxLjg1ODA2MSwyMS44NTgwNjEgMCAwIDEgMTguMDQ2NjQxLDI0OC4zNTc4OCBaIE0gMTcuNzc4MjYzLDQ2Ljc2ODQ1MiBBIDIxLjg1ODA2MSwyMS44NTgwNjEgMCAwIDEgLTQuMDc5Nzk3Nyw2OC42MjY1MTMgMjEuODU4MDYxLDIxLjg1ODA2MSAwIDAgMSAtMjUuOTM3ODU5LDQ2Ljc2ODQ1MiAyMS44NTgwNjEsMjEuODU4MDYxIDAgMCAxIC00LjA3OTc5NzcsMjQuOTEwMzkxIDIxLjg1ODA2MSwyMS44NTgwNjEgMCAwIDEgMTcuNzc4MjYzLDQ2Ljc2ODQ1MiBaIE0gMTcuNzE0MTc2LDE0Ny42NTM3OSBBIDIxLjg1ODA2MSwyMS44NTgwNjEgMCAwIDEgLTQuMTQzODg0NywxNjkuNTExODUgMjEuODU4MDYxLDIxLjg1ODA2MSAwIDAgMSAtMjYuMDAxOTQ1LDE0Ny42NTM3OSAyMS44NTgwNjEsMjEuODU4MDYxIDAgMCAxIC00LjE0Mzg4NDcsMTI1Ljc5NTczIDIxLjg1ODA2MSwyMS44NTgwNjEgMCAwIDEgMTcuNzE0MTc2LDE0Ny42NTM3OSBaIiBzdHlsZT0iY29sb3I6IzAwMDAwMDtvcGFjaXR5OjE7ZmlsbDojMzM1YmJiO2ZpbGwtb3BhY2l0eToxOy1pbmtzY2FwZS1zdHJva2U6bm9uZSIgaWQ9InBhdGgzMjg5NyIvPiYjeGE7ICAgIDxwYXRoIGQ9Im0gMTEyLjk3NzA4LDE2NS4zNDI3IGMgLTUuMDc0Niw3LjY0NjM0IC05LjMyODY3LDE0LjY3MzE5IC0xMi41MTQxOSwyMC45MTkwMiBsIC0wLjEyNSwwLjI0NjA5IC0wLjExNTIzLDAuMjUxOTYgYyAtOS4yMTU2NzYsMjAuMTM4MDEgLTE5LjUyMjQ5MSwzNi41ODk1NiAtMjkuODI4MTI5LDQzLjMwMDc4IC0xMy4xNjMxNTYsNi44NjM1MyAtMTkuODk5MzY4LDUuNTEzMDEgLTMwLjM2NDgxNSw0Ljk2MTA2IDMuMTk2MDQ0LDExLjgwNjMzIDIuNDQ0NTA2LDE5LjExMDMxIDAuMTQyNDQ4LDI2LjA1MzIxIDkuNTc3ODUsMC41MzIzNiAyNC45Mjg4MzksMS4yNzQ0MiA0Mi45NTA4ODMsLTguMzA3MjQgbCAwLjQyNzczNCwtMC4yMjY1NiAwLjQxMDE1NiwtMC4yNTk3NyBDIDEwMi44MjIzLDI0MC4zNjc4IDExMy43ODE1MiwyMTkuNTM4OTEgMTIzLjYyNSwxOTguMDc2MTcgYyAyLjYwNjk3LC01LjExMTQ2IDYuNjc0NTEsLTExLjg1MTUgMTEuNzEsLTE5LjM5NDg0IC05LjA3NDY4LC0zLjA3Nzk1IC0xNi45NDA4MSwtOC42MDk4NiAtMjIuMzU3OTIsLTEzLjMzODYzIHogbSAtNzIuODE4NSwtNC42MTUzOSA0Ni41MTQ0NzMsMC4wMTgxIDguOTkxMTU4LC0xMy4yODE0MiAtOC40MTMyODIsLTEyLjcxODM2IC00Ny4wOTI0MDYsLTAuMDE4MyBjIDIuODEzNDc4LDcuMzYzOTggMi4yMjQ4MjIsMTkuNjM5MTEgNS43ZS01LDI2IHoiIHN0eWxlPSJjb2xvcjojMDAwMDAwO29wYWNpdHk6MTtmaWxsOiM3NjllZjU7ZmlsbC1vcGFjaXR5OjE7LWlua3NjYXBlLXN0cm9rZTpub25lIiBpZD0icGF0aDMyOTAxIi8+JiN4YTsgIDwvZz4mI3hhOzwvc3ZnPg==;" parent="1" vertex="1">
                    <mxGeometry x="243" y="290" width="32.31" height="30" as="geometry"/>
                </mxCell>
                <mxCell id="52" value="RESTful" style="edgeStyle=none;html=1;exitX=0.84;exitY=0.28;exitDx=0;exitDy=0;exitPerimeter=0;entryX=0;entryY=0.5;entryDx=0;entryDy=0;fontSize=12;" parent="1" source="54" target="51" edge="1">
                    <mxGeometry relative="1" as="geometry"/>
                </mxCell>
                <mxCell id="53" value="gRPC" style="edgeStyle=none;html=1;exitX=1;exitY=1;exitDx=0;exitDy=0;exitPerimeter=0;entryX=0;entryY=0.75;entryDx=0;entryDy=0;fontSize=12;labelPosition=center;verticalLabelPosition=bottom;align=center;verticalAlign=top;" parent="1" source="54" target="49" edge="1">
                    <mxGeometry relative="1" as="geometry"/>
                </mxCell>
                <mxCell id="54" value="Frontend" style="verticalLabelPosition=bottom;html=1;verticalAlign=top;align=center;strokeColor=none;fillColor=#00BEF2;shape=mxgraph.azure.user;fontSize=12;" parent="1" vertex="1">
                    <mxGeometry x="78" y="295" width="30" height="30" as="geometry"/>
                </mxCell>
                <mxCell id="57" value="TLS handshake failed" style="edgeStyle=none;html=1;fontSize=12;entryX=0;entryY=1;entryDx=0;entryDy=0;" parent="1" source="55" target="64" edge="1">
                    <mxGeometry relative="1" as="geometry">
                        <mxPoint x="530" y="540" as="targetPoint"/>
                    </mxGeometry>
                </mxCell>
                <mxCell id="55" value="Tampering service" style="sketch=0;outlineConnect=0;fontColor=#FFFFFF;gradientColor=none;fillColor=#BF0816;strokeColor=none;dashed=0;verticalLabelPosition=bottom;verticalAlign=top;align=center;html=1;fontSize=12;fontStyle=0;aspect=fixed;pointerEvents=1;shape=mxgraph.aws4.waf_bad_bot;" parent="1" vertex="1">
                    <mxGeometry x="401.0299999999999" y="570" width="43.94" height="40" as="geometry"/>
                </mxCell>
                <mxCell id="64" value="mTLS protected" style="swimlane;startSize=0;fontSize=12;fontColor=#ffffff;labelPosition=center;verticalLabelPosition=top;align=center;verticalAlign=bottom;fillColor=#1ba1e2;strokeColor=#006EAF;" parent="1" vertex="1">
                    <mxGeometry x="610" y="315" width="220" height="180" as="geometry"/>
                </mxCell>
                <mxCell id="66" style="edgeStyle=none;html=1;exitX=1;exitY=0.5;exitDx=0;exitDy=0;entryX=0;entryY=0.5;entryDx=0;entryDy=0;fontSize=12;fontColor=#FFFFFF;endArrow=none;endFill=0;" parent="1" source="65" target="26" edge="1">
                    <mxGeometry relative="1" as="geometry"/>
                </mxCell>
                <mxCell id="65" value="Auth inteceptor" style="sketch=0;html=1;verticalAlign=top;labelPosition=center;verticalLabelPosition=bottom;align=center;spacingTop=-6;fontSize=11;fontStyle=1;fontColor=#999999;shape=image;aspect=fixed;imageAspect=0;image=data:image/svg+xml,PHN2ZyB4bWxucz0iaHR0cDovL3d3dy53My5vcmcvMjAwMC9zdmciIHhtbG5zOnY9Imh0dHBzOi8vdmVjdGEuaW8vbmFubyIgd2lkdGg9IjE5Ljk1MDAwMDc2MjkzOTQ1MyIgaGVpZ2h0PSIxMiIgdmlld0JveD0iMCAwIDE5Ljk1MDAwMDc2MjkzOTQ1MyAxMiI+JiN4YTsJPHN0eWxlIHR5cGU9InRleHQvY3NzIj4mI3hhOwkuc3Qwe2ZpbGw6IzQyODVmNH0mI3hhOwkuc3Qxe2ZpbGw6I2FlY2JmYX0mI3hhOwk8L3N0eWxlPiYjeGE7CTxwYXRoIGNsYXNzPSJzdDAiIGQ9Ik02IDZsMSAyaDZsMS0yLTEtMkg3eiIgZmlsbD0iIzQyODVmNCIvPiYjeGE7CTxwYXRoIGNsYXNzPSJzdDEiIGQ9Ik03LjUxIDRIN0w2IDZoOGwtMS0yeiIgZmlsbD0iI2FlY2JmYSIvPiYjeGE7CTxwYXRoIGNsYXNzPSJzdDAiIGQ9Ik0xNi45NyA2bDEuNS0yLjI1TDE2IDBoLTN6IiBmaWxsPSIjNDI4NWY0Ii8+JiN4YTsJPHBhdGggY2xhc3M9InN0MSIgZD0iTTE2Ljk3IDZoMEwxMyAxMmgzbDMuOTUtNi0xLjQ4LTIuMjV6IiBmaWxsPSIjYWVjYmZhIi8+JiN4YTsJPHBhdGggY2xhc3M9InN0MCIgZD0iTTIuOTggNmwtMS41IDIuMjVMMy45NSAxMmgzeiIgZmlsbD0iIzQyODVmNCIvPiYjeGE7CTxwYXRoIGNsYXNzPSJzdDEiIGQ9Ik0yLjk4IDZoMGwzLjk3LTZoLTNMMCA2bDEuNDggMi4yNXoiIGZpbGw9IiNhZWNiZmEiLz4mI3hhOzwvc3ZnPg==;" parent="1" vertex="1">
                    <mxGeometry x="306" y="474" width="56.28" height="33.5" as="geometry"/>
                </mxCell>
            </root>
        </mxGraphModel>
    </diagram>
</mxfile>